@startuml
left to right direction

package Arquitetura{

    class TarefasView{
        void exibirMenu()
        void adicionarTarefas()
        void concluirTarefas()
        void obterTarefas()
        void obterTarefasNaoConcluidas()
    }
    TarefasView::adicionarTarefas-->TarefasController
    TarefasView::concluirTarefas-->TarefasController
    TarefasView::obterTarefas-->TarefasController
    TarefasView::obterTarefasNaoConcluidas-->TarefasController

    class TarefasController{
        List<Tarefa> tarefas

        void adicionarTarefa(String descricao)
        Tarefa obterTarefa(int id)
        List<Tarefa> obterTarefasNaoConcluidas()
        List<Tarefa> obterTarefas()
        void concluirTarefa(int id)
    }
    TarefasController::tarefas-->Tarefa

    class Tarefa{
        int id
        String descricao
        bool finalizada

        int getId()
        String getDescricao()
        bool getFinalizada()
        void setFinalizada()
    }
}
@enduml